<?xml version="1.0" encoding="UTF-8" ?>
<!DOCTYPE svg PUBLIC "-//W3C//DTD SVG 1.1//EN" "http://www.w3.org/Graphics/SVG/1.1/DTD/svg11.dtd">
<svg width="886pt" height="510pt" viewBox="0 0 886 510" version="1.1" xmlns="http://www.w3.org/2000/svg">
<path fill="#ffffff" d=" M 0.00 0.00 L 886.00 0.00 L 886.00 510.00 L 0.00 510.00 L 0.00 0.00 Z" />
<path fill="#000000" d=" M 219.58 26.28 C 230.00 25.04 240.52 24.93 251.00 25.00 C 274.68 24.70 298.51 27.94 321.01 35.43 C 318.44 41.93 314.04 47.48 310.48 53.45 C 305.61 60.25 300.28 66.73 295.82 73.81 C 292.66 78.73 289.02 83.29 285.22 87.72 C 273.00 85.02 260.53 83.17 248.00 83.13 C 211.15 84.20 174.79 97.16 145.43 119.43 C 120.30 138.04 102.07 164.88 90.82 193.82 C 83.66 212.70 79.54 232.79 79.12 253.00 C 80.10 297.28 98.38 340.97 129.29 372.71 C 160.79 403.39 204.05 421.60 247.99 422.87 C 264.35 422.72 280.64 419.93 296.29 415.26 C 302.97 413.34 308.98 409.55 315.76 407.98 C 320.24 419.42 325.44 430.55 330.34 441.82 C 332.63 449.37 336.14 456.43 339.71 463.45 C 310.47 476.68 277.97 481.79 246.00 481.00 C 191.48 481.90 136.90 461.21 96.93 424.07 C 89.84 417.50 83.05 410.61 76.48 403.52 C 49.32 373.51 30.98 335.66 24.15 295.77 C 21.37 280.35 20.76 264.64 21.00 249.00 C 20.50 203.60 34.81 158.18 61.33 121.31 C 71.95 106.20 85.02 93.05 98.48 80.48 C 131.82 50.29 174.86 31.04 219.58 26.28 Z" />
<path fill="#ffffff" d=" M 137.63 84.66 C 170.37 63.42 208.98 51.28 248.00 50.14 C 259.38 50.18 270.71 51.59 281.91 53.47 C 283.02 53.65 284.03 54.08 284.95 54.75 C 282.91 58.02 280.91 61.31 278.95 64.64 C 265.04 62.83 250.98 62.77 236.97 63.15 C 202.14 64.40 167.80 76.20 139.45 96.47 C 127.68 104.82 117.12 114.77 107.32 125.33 C 77.36 157.14 59.88 200.31 59.05 243.98 C 58.95 255.68 58.75 267.42 60.24 279.05 C 64.40 315.13 79.88 349.82 103.97 377.02 C 112.66 386.65 121.90 395.83 132.03 403.95 C 156.29 423.27 185.64 436.12 216.29 440.86 C 231.40 443.33 246.77 443.22 262.03 442.81 C 276.18 442.37 290.10 439.60 303.79 436.21 C 305.84 439.18 306.46 442.80 307.92 446.05 C 283.04 453.53 256.70 457.98 230.74 454.63 C 188.91 449.99 148.58 432.73 116.37 405.64 C 105.71 396.98 96.58 386.59 88.43 375.57 C 63.63 342.23 48.84 301.57 46.39 260.08 C 45.63 248.93 46.86 237.75 48.42 226.71 C 54.63 185.18 73.31 145.62 101.47 114.48 C 112.08 102.93 124.55 93.24 137.63 84.66 Z" />
<path fill="#000000" d=" M 245.53 104.75 C 249.04 104.21 252.40 105.92 255.93 105.55 C 265.53 105.15 275.07 106.86 284.31 109.35 C 290.15 109.52 295.45 112.26 301.00 113.80 C 311.93 118.50 322.96 123.28 332.64 130.32 C 341.64 137.60 351.52 144.08 358.76 153.30 C 360.83 156.19 363.77 158.35 365.71 161.35 C 368.63 165.74 372.08 169.75 374.89 174.22 C 378.65 180.98 382.85 187.56 385.46 194.89 C 387.26 200.32 390.18 205.36 391.31 211.01 C 392.11 215.14 393.74 219.08 394.35 223.26 C 394.51 230.52 396.74 237.54 396.57 244.82 C 396.45 248.88 397.98 252.85 397.17 256.92 C 395.82 262.09 397.06 267.48 395.94 272.67 C 394.43 281.45 393.40 290.45 389.96 298.74 C 387.96 303.26 387.10 308.18 384.85 312.60 C 382.76 318.50 379.04 323.58 376.31 329.18 C 370.12 339.67 362.10 348.90 354.03 357.97 C 351.65 360.63 348.38 362.27 346.01 364.96 C 339.91 371.50 331.78 375.50 324.70 380.81 C 318.54 384.16 312.18 387.09 305.93 390.24 C 298.61 392.92 291.22 395.58 283.62 397.33 C 278.68 397.26 274.18 399.68 269.24 399.66 C 262.60 401.43 255.63 399.50 248.99 401.23 C 245.64 400.47 242.21 400.96 238.82 400.55 C 226.61 400.50 214.68 397.56 203.00 394.21 C 197.80 392.00 192.19 390.79 187.31 387.87 C 172.66 381.56 159.47 372.16 147.98 361.19 C 142.93 357.89 139.49 352.84 135.47 348.47 C 129.55 342.48 125.73 334.88 120.81 328.13 C 118.07 323.26 115.43 318.30 113.72 312.97 C 110.67 307.76 108.80 301.98 107.29 296.16 C 105.16 290.04 103.43 283.66 103.30 277.15 C 101.72 271.40 101.00 265.44 101.40 259.48 C 101.76 255.64 99.98 251.92 100.90 248.09 C 101.72 244.45 101.47 240.71 101.59 237.01 C 101.62 232.85 103.62 228.99 103.55 224.83 C 103.51 221.72 105.02 218.89 105.45 215.86 C 105.95 210.96 108.42 206.61 109.60 201.88 C 114.57 188.69 121.30 176.14 129.69 164.80 C 132.58 159.79 137.23 156.25 140.62 151.63 C 144.23 146.86 149.59 143.96 153.51 139.51 C 155.57 137.11 158.29 135.50 160.92 133.82 C 172.55 124.47 186.15 117.97 200.09 112.82 C 207.54 110.87 214.82 108.07 222.52 107.22 C 225.03 106.71 227.55 106.22 230.09 105.79 C 235.22 105.20 240.47 106.05 245.53 104.75 Z" />
<path fill="#ffffff" d=" M 234.44 114.51 C 276.12 109.91 319.12 125.77 348.73 155.27 C 374.60 182.57 389.72 220.26 388.10 257.99 C 387.00 292.81 371.91 326.77 347.74 351.73 C 325.25 373.52 295.54 387.85 264.39 391.36 C 226.50 395.84 187.28 383.31 158.19 358.80 C 147.93 350.69 139.77 340.26 132.56 329.43 C 119.62 309.29 111.71 285.94 109.97 262.05 C 109.85 256.36 109.89 250.66 109.94 244.97 C 112.02 211.22 126.73 178.51 150.26 154.27 C 172.94 132.26 203.00 117.95 234.44 114.51 Z" />
<path fill="#000000" d=" M 198.62 151.58 C 212.87 144.31 228.80 140.90 244.71 140.30 C 244.74 143.46 244.73 146.61 244.70 149.77 C 224.58 150.82 204.75 157.65 188.33 169.36 C 163.48 186.46 148.76 215.75 145.83 245.39 C 142.77 245.39 139.71 245.38 136.65 245.40 C 137.28 223.97 145.11 202.99 157.81 185.80 C 168.80 171.73 182.40 159.33 198.62 151.58 Z" />
<path fill="#000000" d=" M 564.39 143.59 C 569.05 142.71 573.93 142.69 578.58 143.62 C 580.69 143.93 582.13 145.81 581.80 147.94 C 581.83 202.98 581.82 258.02 581.81 313.06 C 582.47 317.41 577.20 317.89 574.11 317.98 C 569.89 317.81 564.68 318.83 561.35 315.65 C 560.81 302.46 561.28 289.21 561.12 276.00 C 561.15 233.01 561.07 190.01 561.16 147.02 C 560.85 145.06 562.72 143.89 564.39 143.59 Z" />
<path fill="#000000" d=" M 217.43 182.48 C 225.40 179.05 233.95 176.83 242.66 176.61 C 242.37 179.68 242.37 182.78 242.38 185.87 C 226.93 188.13 211.87 194.66 200.73 205.75 C 193.50 213.44 188.22 222.89 184.95 232.90 C 183.49 237.05 183.10 241.47 181.81 245.67 C 178.78 245.74 175.75 245.73 172.73 245.73 C 173.22 231.49 178.82 217.69 187.36 206.38 C 195.56 196.45 205.43 187.53 217.43 182.48 Z" />
<path fill="#000000" d=" M 474.01 197.16 C 487.58 194.10 503.13 196.70 513.36 206.64 C 524.22 217.05 528.14 232.46 529.29 247.00 C 530.39 263.61 529.00 281.11 520.99 296.01 C 515.39 306.60 505.31 314.77 493.61 317.54 C 483.78 319.83 472.91 319.86 463.75 315.17 C 457.34 312.00 452.18 306.97 446.89 302.28 C 446.67 321.14 446.95 340.02 446.75 358.89 C 446.17 363.81 439.54 362.73 435.97 363.03 C 432.44 362.87 425.53 363.36 426.12 358.05 C 426.14 305.71 426.09 253.37 426.15 201.04 C 425.67 197.73 429.58 197.20 431.99 197.06 C 435.60 197.02 439.51 196.52 442.84 198.20 C 444.36 198.83 444.20 200.60 444.30 201.96 C 444.38 206.76 444.25 211.56 444.34 216.36 C 452.78 208.08 462.20 199.92 474.01 197.16 Z" />
<path fill="#000000" d=" M 625.67 203.69 C 640.81 196.50 658.27 194.22 674.75 197.33 C 683.46 199.00 692.17 203.22 697.21 210.79 C 703.21 219.60 703.89 230.67 703.96 240.99 C 703.93 265.32 704.03 289.66 703.92 313.99 C 704.19 317.15 700.42 317.74 698.06 317.92 C 694.29 317.99 690.05 318.51 686.72 316.38 C 685.37 312.24 686.51 307.64 686.05 303.33 C 678.03 311.49 667.55 317.56 656.02 318.72 C 645.35 319.72 633.91 318.22 624.84 312.15 C 607.97 300.95 606.77 273.12 622.26 260.25 C 630.02 253.66 640.12 250.70 650.02 249.22 C 661.05 247.48 672.24 248.13 683.36 247.99 C 683.27 239.20 684.19 229.55 679.20 221.80 C 674.88 215.21 666.49 213.16 659.06 213.06 C 647.16 212.52 635.70 216.84 625.42 222.48 C 623.32 223.59 620.08 225.21 618.40 222.59 C 616.49 219.46 616.89 215.51 617.23 212.02 C 617.76 207.63 622.21 205.54 625.67 203.69 Z" />
<path fill="#000000" d=" M 724.64 197.71 C 729.59 196.59 734.81 196.87 739.84 197.35 C 742.19 197.43 743.96 199.14 744.57 201.35 C 755.49 231.74 766.04 262.26 777.05 292.62 C 787.66 262.27 797.78 231.75 808.23 201.35 C 808.79 199.96 809.34 198.22 811.01 197.84 C 814.91 196.66 819.08 196.98 823.11 197.08 C 825.19 197.30 827.77 197.32 829.13 199.21 C 830.04 201.23 829.07 203.45 828.52 205.43 C 810.27 256.21 791.99 306.98 773.80 357.77 C 772.85 361.74 768.31 362.54 764.86 362.85 C 760.68 363.00 756.24 363.53 752.30 361.87 C 750.05 360.94 750.63 358.18 751.39 356.44 C 756.46 343.42 761.58 330.42 766.67 317.41 C 765.13 315.85 763.65 314.15 762.96 312.03 C 749.70 276.27 736.38 240.52 723.11 204.76 C 722.12 202.44 721.37 198.54 724.64 197.71 Z" />
<path fill="#000000" d=" M 242.43 212.69 C 252.60 211.32 263.63 212.81 272.16 218.87 C 279.29 224.18 285.53 231.26 288.04 239.96 C 290.26 247.91 290.30 256.40 288.49 264.44 C 286.12 274.26 279.13 282.33 270.96 287.94 C 261.39 294.11 249.29 294.83 238.36 292.69 C 224.94 289.48 213.60 278.45 209.73 265.25 C 207.00 253.90 207.64 241.09 214.06 231.04 C 220.52 221.49 230.62 213.66 242.43 212.69 Z" />
<path fill="#ffffff" d=" M 474.39 214.66 C 481.89 213.04 490.45 214.41 496.13 219.86 C 503.28 226.42 505.94 236.33 507.07 245.64 C 508.72 259.62 508.03 274.59 501.23 287.22 C 497.28 294.69 489.70 300.52 481.07 300.89 C 472.19 301.79 463.92 297.22 457.61 291.37 C 453.80 287.79 449.87 284.20 446.91 279.88 C 446.66 266.58 446.92 253.26 446.79 239.96 C 446.89 237.95 446.36 235.56 448.04 234.05 C 455.15 225.77 463.38 217.22 474.39 214.66 Z" />
<path fill="#ffffff" d=" M 242.41 222.49 C 250.98 220.52 260.18 222.73 267.40 227.62 C 273.27 231.27 276.86 237.65 278.86 244.11 C 281.87 253.25 279.71 263.54 274.39 271.40 C 270.73 277.27 264.34 280.86 257.88 282.86 C 248.74 285.87 238.45 283.71 230.60 278.39 C 224.04 274.27 220.36 266.88 218.49 259.59 C 216.25 249.83 219.41 239.35 225.73 231.74 C 230.10 226.95 236.19 224.06 242.41 222.49 Z" />
<path fill="#000000" d=" M 316.19 260.34 C 319.23 260.27 322.28 260.25 325.33 260.14 C 324.75 274.41 319.23 288.27 310.64 299.61 C 302.44 309.55 292.57 318.47 280.57 323.52 C 273.29 326.57 265.57 328.90 257.63 329.22 C 257.61 326.07 257.61 322.93 257.60 319.79 C 272.34 317.37 286.60 310.83 297.27 300.25 C 306.72 290.08 313.10 277.05 315.37 263.35 C 315.62 262.34 315.89 261.33 316.19 260.34 Z" />
<path fill="#000000" d=" M 352.25 261.32 C 355.26 261.26 358.26 261.27 361.27 261.26 C 360.64 282.22 352.89 302.70 340.63 319.61 C 328.14 336.00 311.83 349.81 292.58 357.53 C 282.09 361.75 270.94 364.63 259.63 365.17 C 259.60 362.07 259.60 358.97 259.62 355.87 C 283.39 352.87 306.31 342.31 323.25 325.23 C 337.73 309.75 347.63 289.96 350.93 268.99 C 351.25 266.41 351.79 263.87 352.25 261.32 Z" />
<path fill="#ffffff" d=" M 641.93 267.87 C 654.62 261.06 669.55 263.52 683.36 263.05 C 683.36 270.38 683.40 277.71 683.36 285.04 C 683.57 286.79 681.96 287.85 680.96 289.02 C 674.83 295.17 667.66 301.16 658.80 302.54 C 651.95 303.59 644.23 302.87 638.72 298.29 C 629.45 290.52 630.91 273.39 641.93 267.87 Z" />
<path fill="#000000" d=" M 843.39 289.59 C 848.09 288.69 853.20 288.53 857.71 290.35 C 861.81 292.07 862.49 297.03 862.72 300.94 C 862.77 305.65 863.05 311.03 859.99 314.95 C 856.53 318.18 851.35 318.10 846.93 317.96 C 843.18 317.78 838.57 316.68 837.17 312.70 C 835.38 307.54 835.57 301.83 836.53 296.51 C 837.06 292.99 839.86 290.14 843.39 289.59 Z" />
<path fill="#8b8b8b" d=" M 372.33 413.22 C 372.86 413.76 372.86 413.76 372.33 413.22 Z" />
</svg>
